<svg xmlns="http://www.w3.org/2000/svg" viewBox="0 0 238 47"><defs><style>.cls-1{fill:#181818;}</style></defs><title>uiprint</title><g id="Layer_2" data-name="Layer 2"><g id="Layer_1-2" data-name="Layer 1"><path class="cls-1" d="M63.05,32.37a9.11,9.11,0,0,1-6.3,2.18,9.14,9.14,0,0,1-6.31-2.18A7.56,7.56,0,0,1,48,26.46V11h3.8V26.23A4.61,4.61,0,0,0,53,29.6a5.08,5.08,0,0,0,3.73,1.25,5,5,0,0,0,3.7-1.25,4.58,4.58,0,0,0,1.25-3.37V11h3.8V26.46A7.57,7.57,0,0,1,63.05,32.37Z"/><path class="cls-1" d="M82.25,11H86V34.12H82.25Z"/><path class="cls-1" d="M111.56,11A7.42,7.42,0,0,1,117,13.19a7.31,7.31,0,0,1,2.21,5.41,7.5,7.5,0,0,1-7.66,7.6h-4.72v7.92H103V11Zm0,11.62a3.68,3.68,0,0,0,2.77-1.12,4.06,4.06,0,0,0,1.09-2.91,4,4,0,0,0-1.09-2.87,3.63,3.63,0,0,0-2.77-1.15h-4.72v8Z"/><path class="cls-1" d="M148.07,34.12l-4.89-8.42h-4.49v8.42H134.9V11h9.24a7.09,7.09,0,0,1,5.25,2.18,7.09,7.09,0,0,1,2.18,5.25,7,7,0,0,1-1.29,4.06,7.24,7.24,0,0,1-3.3,2.64l5.25,9Zm-9.38-19.54V22.3h5.45a3.38,3.38,0,0,0,2.57-1.12,3.83,3.83,0,0,0,1.06-2.74,3.83,3.83,0,0,0-1.06-2.74,3.38,3.38,0,0,0-2.57-1.12Z"/><path class="cls-1" d="M167.52,11h3.8V34.12h-3.8Z"/><path class="cls-1" d="M202.19,11H206V34.12h-3L192.12,18.44V34.12h-3.8V11h3l10.9,15.68Z"/><path class="cls-1" d="M238,11v3.63h-6.5V34.12h-3.8V14.64h-6.54V11Z"/><path class="cls-1" d="M0,41.76l10,5A2,2,0,0,0,12.92,45V35.29L0,41.76Z"/><path class="cls-1" d="M28.28,18,13.66,1A3,3,0,0,0,9.6.61L0,7.91V41.76L27.72,22.4A3,3,0,0,0,28.28,18Z"/></g></g></svg>