<svg width="1705" height="499" viewBox="0 0 1705 499" fill="none" xmlns="http://www.w3.org/2000/svg">
<path d="M382 308C382 413.486 296.486 499 191 499C85.5136 499 0 413.486 0 308C0 202.514 85.5136 117 191 117C296.486 117 382 202.514 382 308Z" fill="#A2FBF4"/>
<path fill-rule="evenodd" clip-rule="evenodd" d="M1620 137C1648.72 137 1672 113.719 1672 85C1672 56.2812 1648.72 33 1620 33C1591.28 33 1568 56.2812 1568 85C1568 113.719 1591.28 137 1620 137ZM1620 170C1666.94 170 1705 131.944 1705 85C1705 38.0558 1666.94 0 1620 0C1573.06 0 1535 38.0558 1535 85C1535 131.944 1573.06 170 1620 170Z" fill="#FED97F"/>
</svg>
