<?xml version="1.0" encoding="utf-8"?>
<!-- Generator: Adobe Illustrator 23.0.3, SVG Export Plug-In . SVG Version: 6.00 Build 0)  -->
<svg version="1.1" id="Layer_1" xmlns="http://www.w3.org/2000/svg" xmlns:xlink="http://www.w3.org/1999/xlink" x="0px" y="0px"
	 viewBox="0 0 238 47" style="enable-background:new 0 0 238 47;" xml:space="preserve">
<style type="text/css">
	.st0{fill:#181818;}
</style>
<title>uiprint</title>
<g>
	<g id="Layer_1-2">
		<path class="st0" d="M63,32.4c-1.7,1.5-4,2.3-6.3,2.2c-2.3,0.1-4.6-0.7-6.3-2.2c-1.6-1.5-2.5-3.7-2.4-5.9V11h3.8v15.2
			c-0.1,1.2,0.4,2.5,1.2,3.4c1,0.9,2.4,1.4,3.7,1.2c1.4,0.1,2.7-0.3,3.7-1.2c0.9-0.9,1.3-2.1,1.2-3.4V11h3.8v15.5
			C65.6,28.7,64.7,30.9,63,32.4z"/>
		<path class="st0" d="M82.2,11H86v23.1h-3.8V11z"/>
		<path class="st0" d="M111.6,11c2,0,4,0.7,5.4,2.2c1.5,1.4,2.3,3.4,2.2,5.4c0.1,4.1-3.3,7.5-7.4,7.6c-0.1,0-0.2,0-0.3,0h-4.7v7.9
			H103V11H111.6z M111.6,22.6c1,0,2-0.4,2.8-1.1c0.7-0.8,1.1-1.8,1.1-2.9c0-1.1-0.4-2.1-1.1-2.9c-0.7-0.8-1.7-1.2-2.8-1.1h-4.7v8
			L111.6,22.6z"/>
		<path class="st0" d="M148.1,34.1l-4.9-8.4h-4.5v8.4h-3.8V11h9.2c2,0,3.9,0.8,5.2,2.2c1.4,1.4,2.2,3.3,2.2,5.2
			c0,1.5-0.4,2.9-1.3,4.1c-0.8,1.2-2,2.1-3.3,2.6l5.2,9L148.1,34.1z M138.7,14.6v7.7h5.4c1,0,1.9-0.4,2.6-1.1
			c0.7-0.7,1.1-1.7,1.1-2.7c0-1-0.4-2-1.1-2.7c-0.7-0.7-1.6-1.1-2.6-1.1L138.7,14.6z"/>
		<path class="st0" d="M167.5,11h3.8v23.1h-3.8V11z"/>
		<path class="st0" d="M202.2,11h3.8v23.1h-3l-10.9-15.7v15.7h-3.8V11h3l10.9,15.7L202.2,11z"/>
		<path class="st0" d="M238,11v3.6h-6.5v19.5h-3.8V14.6h-6.5V11H238z"/>
	</g>
</g>
<g>
	<path class="st0" d="M12.7,45.9c0.1-0.3,0.2-0.6,0.2-0.9v-9.7L0,41.8l10,5C11,47.3,12.2,46.9,12.7,45.9z"/>
	<path class="st0" d="M28.5,18.2c-0.1-0.1-0.1-0.1-0.2-0.2L13.7,1c-1-1.2-2.8-1.3-4.1-0.4L0,7.9v33.9l27.7-19.4
		C29.1,21.4,29.4,19.6,28.5,18.2z"/>
</g>
</svg>
